<svg width="20" height="18" viewBox="0 0 20 18" fill="none" xmlns="http://www.w3.org/2000/svg">
<path d="M15.4694 14.1216L16.9427 12.7072L18.4152 14.1216C18.7067 14.4013 18.9051 14.7577 18.9856 15.1456C19.0661 15.5336 19.0248 15.9358 18.8671 16.3013C18.7095 16.6668 18.4424 16.9792 18.0998 17.1989C17.7572 17.4187 17.3544 17.536 16.9423 17.536C16.5302 17.536 16.1274 17.4187 15.7848 17.1989C15.4422 16.9792 15.1751 16.6668 15.0175 16.3013C14.8598 15.9358 14.8187 15.5336 14.8991 15.1456C14.9795 14.7577 15.178 14.4013 15.4694 14.1216ZM6.84442 0L16.2727 9.0504C16.3502 9.1247 16.4117 9.213 16.4537 9.3101C16.4956 9.4072 16.5171 9.5113 16.5171 9.6164C16.5171 9.7216 16.4956 9.8257 16.4537 9.9228C16.4117 10.0199 16.3502 10.1081 16.2727 10.1824L9.20191 16.9704C9.04566 17.1204 8.83369 17.2047 8.61275 17.2047C8.39181 17.2047 8.17983 17.1204 8.02358 16.9704L0.952749 10.1824C0.875249 10.1081 0.813791 10.0199 0.771916 9.9228C0.729936 9.8257 0.708374 9.7216 0.708374 9.6164C0.708374 9.5113 0.729936 9.4072 0.771916 9.3101C0.813791 9.213 0.875249 9.1247 0.952749 9.0504L7.43441 2.828L5.66608 1.1312L6.84608 0H6.84442ZM8.61275 3.96L2.72025 9.616L8.61275 15.2744L14.5052 9.6176L8.61275 3.9592V3.96Z" fill="#7A7A7A"/>
</svg>
