<svg width="19" height="16" viewBox="0 0 19 16" fill="none" xmlns="http://www.w3.org/2000/svg">
<path d="M15.666 6.82142L17.1893 5.29725L18.3685 6.47642L14.8327 10.0114L11.2968 6.47642L12.476 5.29725L13.9993 6.82142V4.66642C13.9993 4.0034 13.736 3.36746 13.2672 2.89861C12.7983 2.42986 12.1624 2.16642 11.4993 2.16642H8.16602V0.499756H11.4993C12.6045 0.499756 13.6642 0.938713 14.4456 1.72017C15.2271 2.50153 15.666 3.56132 15.666 4.66642V6.82142ZM9.83268 5.49976C10.0537 5.49976 10.2657 5.58757 10.422 5.74382C10.5782 5.90007 10.666 6.11205 10.666 6.33309V14.6664C10.666 14.8875 10.5782 15.0994 10.422 15.2557C10.2657 15.4119 10.0537 15.4998 9.83268 15.4998H1.49935C1.27831 15.4998 1.06643 15.4119 0.910078 15.2557C0.753828 15.0994 0.666016 14.8875 0.666016 14.6664V6.33309C0.666016 6.11205 0.753828 5.90007 0.910078 5.74382C1.06643 5.58757 1.27831 5.49976 1.49935 5.49976H9.83268ZM8.99935 7.16642H2.33268V13.8331H8.99935V7.16642Z" fill="#7A7A7A"/>
</svg>
