<svg width="16" height="16" viewBox="0 0 16 16" fill="none" xmlns="http://www.w3.org/2000/svg">
<path d="M15.4994 13.612V15.2447H13.8327V13.612H15.4994ZM12.1661 13.612V15.2447H10.4994V13.612H12.1661ZM8.83272 13.612V15.2447H7.16606V13.612H8.83272ZM5.49939 13.612V15.2447H3.83272V13.612H5.49939ZM2.16606 13.612V15.2447H0.49939V13.612H2.16606ZM15.4994 10.3467V11.9794H13.8327V10.3467H15.4994ZM2.16606 10.3467V11.9794H0.49939V10.3467H2.16606ZM2.16606 7.08139V8.71404H0.49939V7.08139H2.16606ZM11.3327 0.550781C13.5719 0.550781 15.4011 2.28466 15.4952 4.45527L15.4994 4.63241V8.71404H13.8327V4.63241C13.8327 3.33364 12.7869 2.26262 11.4794 2.18752L11.3327 2.18343H7.16606V0.550781H11.3327ZM2.16606 3.81609V5.44874H0.49939V3.81609H2.16606ZM2.16606 0.550781V2.18343H0.49939V0.550781H2.16606ZM5.49939 0.550781V2.18343H3.83272V0.550781H5.49939Z" fill="#7A7A7A"/>
</svg>
