<svg width="18" height="16" viewBox="0 0 18 16" fill="none" xmlns="http://www.w3.org/2000/svg">
<path d="M1.49935 0.95874H16.4993C16.7204 0.95874 16.9324 1.04476 17.0886 1.19782C17.2449 1.35099 17.3327 1.55854 17.3327 1.77507V14.8363C17.3327 15.0528 17.2449 15.2605 17.0886 15.4135C16.9324 15.5666 16.7204 15.6526 16.4993 15.6526H1.49935C1.27831 15.6526 1.06643 15.5666 0.910078 15.4135C0.753828 15.2605 0.666016 15.0528 0.666016 14.8363V1.77507C0.666016 1.55854 0.753828 1.35099 0.910078 1.19782C1.06643 1.04476 1.27831 0.95874 1.49935 0.95874ZM15.666 9.93833H12.8193C12.4951 10.6666 11.961 11.2864 11.2825 11.7217C10.6039 12.1569 9.81049 12.3887 8.99935 12.3887C8.1883 12.3887 7.39487 12.1569 6.71633 11.7217C6.03778 11.2864 5.50362 10.6666 5.17935 9.93833H2.33268V14.02H15.666V9.93833ZM15.666 8.30568V2.59139H2.33268V8.30568H6.49935C6.49935 8.95517 6.76279 9.57813 7.23164 10.0374C7.70049 10.4967 8.33633 10.7547 8.99935 10.7547C9.66237 10.7547 10.2983 10.4967 10.7672 10.0374C11.236 9.57813 11.4993 8.95517 11.4993 8.30568H15.666Z" fill="#7A7A7A"/>
</svg>
