<svg width="18" height="16" viewBox="0 0 18 16" fill="none" xmlns="http://www.w3.org/2000/svg">
<path d="M9.3327 8.9448L13.4994 14.3873C13.5458 14.4479 13.5741 14.52 13.581 14.5955C13.588 14.671 13.5733 14.7469 13.5387 14.8147C13.5042 14.8825 13.4509 14.9395 13.3851 14.9794C13.3193 15.0192 13.2434 15.0403 13.166 15.0403H4.8327C4.7553 15.0403 4.67947 15.0192 4.61363 14.9794C4.54791 14.9395 4.49468 14.8825 4.46009 14.8147C4.42541 14.7469 4.41082 14.671 4.4178 14.5955C4.42468 14.52 4.45301 14.4479 4.49936 14.3873L8.66603 8.9448C8.70488 8.89409 8.7552 8.85297 8.81301 8.8246C8.87092 8.79633 8.93468 8.78154 8.99936 8.78154C9.06405 8.78154 9.12791 8.79633 9.18572 8.8246C9.24364 8.85297 9.29395 8.89409 9.3327 8.9448ZM8.99936 11.2281L7.3327 13.4077H10.666L8.99936 11.2281ZM13.9994 13.4077V11.775H15.666V1.97909H2.3327V11.775H3.99936V13.4077H1.4927C1.38363 13.4075 1.27572 13.3861 1.17509 13.345C1.07447 13.3038 0.983113 13.2436 0.906342 13.1677C0.829467 13.0918 0.768737 13.0019 0.727487 12.903C0.686341 12.8041 0.665404 12.6982 0.666029 12.5913V1.16276C0.666029 0.712149 1.0452 0.346436 1.4927 0.346436H16.506C16.9627 0.346436 17.3327 0.7097 17.3327 1.16276V12.5913C17.3327 13.0419 16.9535 13.4077 16.506 13.4077H13.9994Z" fill="#7A7A7A"/>
</svg>
