<svg width="24" height="24" viewBox="0 0 24 24" fill="none" xmlns="http://www.w3.org/2000/svg">
<path d="M14.1234 23.6666H9.87669C9.61061 23.6666 9.35251 23.5757 9.1452 23.4089C8.93788 23.2421 8.7938 23.0095 8.73686 22.7496L8.26203 20.5516C7.6286 20.274 7.02797 19.927 6.47119 19.5168L4.32803 20.1993C4.07435 20.2801 3.80064 20.2718 3.55233 20.1757C3.30403 20.0796 3.09609 19.9014 2.96303 19.6708L0.835028 15.9946C0.703364 15.7637 0.653941 15.495 0.694844 15.2325C0.735747 14.9699 0.864555 14.7289 1.06019 14.5491L2.72269 13.0324C2.64709 12.3454 2.64709 11.6521 2.72269 10.9651L1.06019 9.45192C0.864278 9.27199 0.735295 9.03084 0.694385 8.768C0.653475 8.50516 0.703065 8.23622 0.835028 8.00525L2.95836 4.32675C3.09142 4.09612 3.29937 3.91794 3.54767 3.8218C3.79597 3.72567 4.06968 3.71736 4.32336 3.79825L6.46653 4.48075C6.75119 4.27075 7.04753 4.07475 7.35319 3.89742C7.64836 3.73175 7.95169 3.58125 8.26203 3.44709L8.73803 1.25142C8.79469 0.991483 8.9385 0.758721 9.1456 0.591726C9.3527 0.42473 9.61065 0.333532 9.87669 0.333252H14.1234C14.3894 0.333532 14.6474 0.42473 14.8545 0.591726C15.0616 0.758721 15.2054 0.991483 15.262 1.25142L15.7427 3.44825C16.0694 3.59292 16.389 3.75509 16.6982 3.93592C16.9864 4.10275 17.2652 4.28592 17.5335 4.48309L19.6779 3.80059C19.9314 3.71999 20.2048 3.72845 20.4529 3.82457C20.7009 3.9207 20.9087 4.0987 21.0417 4.32909L23.165 8.00759C23.4357 8.48242 23.3424 9.08325 22.9399 9.45309L21.2774 10.9698C21.353 11.6568 21.353 12.35 21.2774 13.0371L22.9399 14.5538C23.3424 14.9248 23.4357 15.5244 23.165 15.9993L21.0417 19.6778C20.9086 19.9084 20.7007 20.0866 20.4524 20.1827C20.2041 20.2788 19.9304 20.2871 19.6767 20.2063L17.5335 19.5238C16.9772 19.9337 16.3769 20.2804 15.7439 20.5574L15.262 22.7496C15.2051 23.0093 15.0612 23.2418 14.8541 23.4086C14.6471 23.5753 14.3892 23.6664 14.1234 23.6666ZM11.9954 7.33325C10.7577 7.33325 9.5707 7.82492 8.69553 8.70009C7.82036 9.57526 7.32869 10.7622 7.32869 11.9999C7.32869 13.2376 7.82036 14.4246 8.69553 15.2998C9.5707 16.1749 10.7577 16.6666 11.9954 16.6666C13.233 16.6666 14.42 16.1749 15.2952 15.2998C16.1704 14.4246 16.662 13.2376 16.662 11.9999C16.662 10.7622 16.1704 9.57526 15.2952 8.70009C14.42 7.82492 13.233 7.33325 11.9954 7.33325Z" fill="#767676"/>
</svg>
