<svg width="16" height="18" viewBox="0 0 16 18" fill="none" xmlns="http://www.w3.org/2000/svg">
<path d="M7.16608 2.26578V0.530273H8.83275V2.26578C9.40411 2.41068 9.92598 2.7015 10.3451 3.10854C10.7643 3.51568 11.0657 4.02436 11.2184 4.58282C11.3712 5.14129 11.3699 5.72946 11.2147 6.28732C11.0596 6.84517 10.7561 7.35272 10.3353 7.75803L15.3878 16.3311L13.9444 17.1474L8.89192 8.57517C8.30796 8.73395 7.69088 8.73395 7.10692 8.57517L2.05442 17.1474L0.611084 16.3311L5.66358 7.75803C5.24275 7.35272 4.93921 6.84517 4.784 6.28732C4.6289 5.72946 4.62765 5.14129 4.78035 4.58282C4.93317 4.02436 5.23452 3.51568 5.65369 3.10854C6.07275 2.7015 6.59473 2.41068 7.16608 2.26578ZM7.99942 7.06089C8.4414 7.06089 8.86536 6.88884 9.17796 6.58272C9.49046 6.2765 9.66608 5.86129 9.66608 5.42823C9.66608 4.99527 9.49046 4.57997 9.17796 4.27374C8.86536 3.96762 8.4414 3.79558 7.99942 3.79558C7.55733 3.79558 7.13348 3.96762 6.82088 4.27374C6.50838 4.57997 6.33275 4.99527 6.33275 5.42823C6.33275 5.86129 6.50838 6.2765 6.82088 6.58272C7.13348 6.88884 7.55733 7.06089 7.99942 7.06089Z" fill="#7A7A7A"/>
</svg>
